<svg width="119.306" height="93" viewBox="0 0 119.306 93" xmlns="http://www.w3.org/2000/svg" xmlns:xlink="http://www.w3.org/1999/xlink" overflow="hidden"><g id="icono2" transform="translate(-15.872 -14.115)"><g id="Group_3" transform="translate(15.88 14.115)"><g id="Group_2"><path d="M134.857 61.916C134.678 61.6134 134.425 61.3607 134.123 61.181L134.249 61.181 57.272 14.4C56.6226 14.0236 55.8214 14.0236 55.172 14.4L17.043 34.768C16.0047 35.2848 15.582 36.5455 16.0988 37.5838 16.2696 37.927 16.5311 38.2169 16.855 38.422L93.936 86.341C94.5873 86.7453 95.4074 86.7614 96.074 86.383L134.12 64.794C135.118 64.2033 135.448 62.9154 134.858 61.9172 134.857 61.9168 134.857 61.9164 134.857 61.916ZM95.174 82.187 22.221 36.761 56.119 18.6 128.945 62.933Z" id="Path_3" fill="#6610F2" transform="translate(-15.88 -14.115)"/></g></g><g id="Group_5" transform="translate(15.872 44.728)"><g id="Group_4"><path d="M134.9 74.123C134.324 73.1161 133.041 72.7666 132.035 73.3422 132.032 73.3435 132.03 73.3447 132.028 73.346L132.154 73.346 95.195 94.346 19.118 47.032C18.143 46.3897 16.832 46.6594 16.1897 47.6343 15.5474 48.6093 15.817 49.9204 16.792 50.5627 16.8124 50.5761 16.8331 50.5893 16.854 50.602L93.936 98.526C94.5873 98.9303 95.4074 98.9464 96.074 98.568L134.12 77C135.129 76.4201 135.478 75.133 134.9 74.123Z" id="Path_4" fill="#6610F2" transform="translate(-15.872 -46.703)"/></g></g><g id="Group_7" transform="translate(15.872 54.934)"><g id="Group_6"><path d="M134.45 84.913C133.901 84.227 132.984 83.955 132.15 84.231L95.088 105.231 19.118 57.9C18.143 57.2577 16.832 57.5274 16.1897 58.5023 15.5474 59.4773 15.817 60.7884 16.792 61.4307 16.8124 61.4441 16.8331 61.4573 16.854 61.47L93.936 109.436C94.5873 109.84 95.4074 109.856 96.074 109.478L134.12 87.869C135.027 87.1467 135.177 85.8255 134.455 84.9181 134.454 84.9164 134.452 84.9147 134.451 84.913Z" id="Path_5" fill="#6610F2" transform="translate(-15.872 -57.568)"/></g></g><g id="Group_9" transform="translate(63.143 38.316)"><g id="Group_8"><path d="M90.642 40.662C89.9192 39.7592 88.6014 39.6133 87.6986 40.3361 87.6974 40.3371 87.6962 40.338 87.695 40.339 87.6382 40.3852 87.5838 40.4342 87.532 40.486L85.289 42.586C84.5876 41.9546 83.7963 41.4309 82.941 41.032 81.8243 40.5051 80.5825 40.3014 79.356 40.444 78.2733 40.5785 77.2575 41.04 76.444 41.767 75.6 42.478 75.041 43.4698 74.87 44.56 74.7233 45.7056 74.8452 46.8696 75.226 47.96 75.5375 48.8625 75.9014 49.746 76.316 50.606L72.123 54.364C72.0735 54.2205 72.0325 54.0743 72 53.926 71.8417 52.9137 71.9503 51.8775 72.315 50.92 72.4868 50.4689 72.5857 49.9932 72.608 49.511 72.5893 49.044 72.3946 48.6014 72.063 48.272 71.3136 47.3602 69.9669 47.2286 69.0552 47.9781 69.0303 47.9985 69.0059 48.0195 68.982 48.041 68.2818 48.7087 67.8181 49.5863 67.661 50.541 67.454 51.7983 67.5838 53.0881 68.037 54.279 68.3498 55.1754 68.7799 56.0265 69.316 56.81L66.905 58.91C66.0351 59.6771 65.9518 61.0042 66.719 61.874 67.1201 62.3289 67.6984 62.5882 68.305 62.585L68.263 62.648C68.7815 62.6536 69.2836 62.4665 69.672 62.123L72.041 60.023C72.8283 60.7648 73.7095 61.4002 74.662 61.913 77.0841 63.2873 80.1219 62.9026 82.125 60.968 82.8309 60.3534 83.3242 59.5311 83.534 58.619 83.7395 57.5888 83.7036 56.525 83.429 55.511 83.0525 54.1123 82.5054 52.7651 81.8 51.5L81.8 51.374 85.276 48.245C85.3777 48.8145 85.3777 49.3975 85.276 49.967 85.1501 50.6034 85.0911 51.2513 85.1 51.9 85.1228 52.4113 85.3315 52.8967 85.687 53.265 86.0827 53.7731 86.6625 54.105 87.301 54.189 87.8637 54.2203 88.4152 54.0235 88.831 53.643 89.2789 53.2176 89.5919 52.6699 89.731 52.068 89.8891 51.299 89.8891 50.506 89.731 49.737 89.5551 48.7423 89.2205 47.7824 88.74 46.894 88.5235 46.4896 88.2855 46.097 88.027 45.718L90.312 43.618C91.2191 42.8953 91.3687 41.5741 90.646 40.667 90.6447 40.6653 90.6433 40.6637 90.642 40.662ZM77.763 57.747C77.2166 58.1573 76.5045 58.2753 75.855 58.063 75.4364 57.9569 75.0392 57.7793 74.681 57.538L78.224 54.452C78.3764 54.8412 78.4955 55.2426 78.58 55.652 78.7061 56.4466 78.3938 57.2475 77.763 57.747ZM79.838 47.457C79.7401 47.1357 79.6771 46.8048 79.65 46.47 79.5518 45.8989 79.7584 45.318 80.195 44.937 80.6899 44.5182 81.3717 44.3979 81.98 44.622 82.1906 44.6943 82.3941 44.7856 82.588 44.895Z" id="Path_6" fill="#6610F2" transform="translate(-66.193 -39.877)"/></g></g></g></svg>