<svg viewBox="0 0 123 93" xmlns="http://www.w3.org/2000/svg" xmlns:xlink="http://www.w3.org/1999/xlink" id="Capa_1" xml:space="preserve" overflow="hidden"><g><defs><rect x="0" y="0" width="123" height="93" id="SVGID_1_" fill="#6610F2"/></defs><clipPath id="SVGID_2_"><use width="100%" height="100%" xlink:href="#SVGID_1_" overflow="visible"></use></clipPath><g id="Watch_38mm_1" clip-path="url(#SVGID_2_)"><g id="icono1" transform="translate(-1.153 0)"><g id="Group_1" transform="translate(24.153 0)"><path d="M56.1 37.5 56.1 18.9C56.1 8.5 46.8 0 35.4 0 24 0 14.8 8.5 14.8 18.9L14.8 37.5 0 37.5 0 93 72.5 93 72.5 37.5 56.1 37.5ZM18.1 18.9C18.1 10.3 25.9 3.2 35.4 3.2 44.9 3.2 52.7 10.2 52.7 18.9L52.7 37.5 18.1 37.5 18.1 18.9ZM69.2 89.7 3.3 89.7 3.3 83.2 69.2 83.2 69.2 89.7ZM3.3 79.9 3.3 40.8 69.2 40.8 69.2 80 3.3 80Z" id="Path_1" fill="#6610F2"/><path d="M36.3 50.6C32.7 50.6 29.7 53.5 29.7 57.1L29.7 66.9C29.7 70.5 32.6 73.5 36.2 73.6 39.8 73.6 42.8 70.7 42.9 67.1 42.9 67 42.9 67 42.9 66.9L42.9 57.1C42.8 53.5 39.9 50.6 36.3 50.6L36.3 50.6ZM39.6 66.9C39.6 68.7 38.1 70.2 36.3 70.2 34.5 70.2 33 68.7 33 66.9 33 66.9 33 66.9 33 66.9L33 57.1C33 55.3 34.5 53.8 36.3 53.8 38.1 53.8 39.6 55.3 39.6 57.1 39.6 57.1 39.6 57.1 39.6 57.1L39.6 66.9Z" id="Path_2" fill="#6610F2"/></g></g></g></g></svg>