<svg width="93" height="93" viewBox="0 0 93 93" xmlns="http://www.w3.org/2000/svg" xmlns:xlink="http://www.w3.org/1999/xlink" overflow="hidden"><g id="icono3" transform="translate(-11.625 0)"><g id="Group_11"><g id="Group_10"><path d="M58.125 0C32.4438 7.10543e-15 11.625 20.8188 11.625 46.5 11.625 72.1812 32.4438 93 58.125 93 83.8062 93 104.625 72.1812 104.625 46.5 104.625 20.8188 83.8062-7.10543e-15 58.125-7.10543e-15ZM60.12 88.911 60.12 80.732C60.1981 79.6302 59.3681 78.6737 58.2663 78.5957 57.1645 78.5176 56.2081 79.3475 56.13 80.4493 56.1233 80.5434 56.1233 80.6379 56.13 80.732L56.13 88.911C34.2577 87.8672 16.7605 70.3722 15.714 48.5L23.893 48.5C24.9948 48.5 25.888 47.6068 25.888 46.505 25.888 45.4032 24.9948 44.51 23.893 44.51L15.714 44.51C16.7555 22.6339 34.2541 5.13323 56.13 4.089L56.13 12.268C56.13 13.3698 57.0232 14.263 58.125 14.263 59.2268 14.263 60.12 13.3698 60.12 12.268L60.12 4.089C81.9941 5.13302 99.492 22.6309 100.536 44.505L92.357 44.505C91.2552 44.4269 90.2987 45.2569 90.2207 46.3587 90.1426 47.4605 90.9725 48.4169 92.0743 48.495 92.1684 48.5017 92.2629 48.5017 92.357 48.495L100.557 48.495C99.5121 70.3768 82.0023 87.8775 60.12 88.911Z" id="Path_7" fill="#6610F2"/></g></g><g id="Group_13"><g id="Group_12"><path d="M79.171 65.052 60.12 45.682 60.12 25.554C60.1981 24.4522 59.3681 23.4957 58.2663 23.4177 57.1645 23.3396 56.2081 24.1695 56.13 25.2713 56.1233 25.3654 56.1233 25.4599 56.13 25.554L56.13 46.5C56.1317 47.0244 56.3392 47.5272 56.708 47.9L76.318 67.845C77.1374 68.5857 78.4021 68.5219 79.1428 67.7025 79.8204 66.9529 79.8325 65.8158 79.171 65.052Z" id="Path_8" fill="#6610F2"/></g></g></g></svg>